<?xml version="1.0" encoding="utf-8"?>
<!-- Generator: Adobe Illustrator 25.0.0, SVG Export Plug-In . SVG Version: 6.00 Build 0)  -->
<svg version="1.1" id="Calque_1" xmlns="http://www.w3.org/2000/svg" xmlns:xlink="http://www.w3.org/1999/xlink" x="0px" y="0px"
	 viewBox="0 0 1042 566" style="enable-background:new 0 0 1042 566;" xml:space="preserve">
<style type="text/css">
	.st0{fill:#E31019;}
	.st1{fill:#FFFFFF;}
</style>
<g>
	<g>
		<path class="st0" d="M301.13,183.31c-0.24,0.02-0.36,0.03-0.6,0.05c-4.07,34.87-8.09,69.76-12.06,104.64
			c-15,3.03-29.93,6.26-44.84,9.7c-7.78-68.03-15.46-136.08-23.05-204.13c10.69,0,21.38,0,32.07,0
			c5.58,52.14,11.21,104.27,16.9,156.4c0.24-0.04,0.36-0.06,0.6-0.1c5.25-52.11,10.6-104.21,16.07-156.3c10.59,0,21.18,0,31.77,0
			c5.09,49.38,10.24,98.75,15.45,148.11c0.24-0.03,0.36-0.05,0.6-0.08c5.76-49.35,11.6-98.7,17.52-148.04c9.59,0,19.18,0,28.77,0
			c-8.22,61.01-16.33,122.04-24.31,183.08c-14.6,2.1-29.16,4.4-43.7,6.89C308.57,250.14,304.83,216.72,301.13,183.31z"/>
		<path class="st0" d="M443.91,170.93c14.23-0.39,28.46-0.7,42.69-0.93c-0.02,9.83-0.03,14.74-0.04,24.57
			c-14.25,0.3-28.49,0.71-42.74,1.23c-0.08,23.96-0.16,47.92-0.25,71.88c-11.06,0.79-22.1,1.67-33.15,2.65
			c0.26-58.92,0.52-117.83,0.78-176.75c29.07,0,58.15,0,87.22,0c-0.01,9.81-0.02,14.72-0.03,24.53c-18.1,0.07-36.2,0.18-54.3,0.34
			C444.03,135.94,443.97,153.43,443.91,170.93z"/>
		<path class="st0" d="M528.7,93.58c10.99,0,21.98,0,32.97,0c0.08,49.14,0.17,98.28,0.25,147.42c18.21,0.56,36.38,1.38,54.57,2.49
			c0.04,9.99,0.06,14.99,0.09,24.98c-29.27-2.06-58.51-3.22-87.85-3.47C528.72,207.86,528.71,150.72,528.7,93.58z"/>
		<path class="st0" d="M644.68,93.58c10.99,0,21.98,0,32.97,0c0.3,60.39,0.61,120.78,0.91,181.17c-11.02-1.35-22.03-2.59-33.07-3.75
			C645.22,211.86,644.95,152.72,644.68,93.58z"/>
		<path class="st0" d="M826.01,93.58c-11.12,32.66-22.52,65.21-34.23,97.66c12.73,37.22,24.94,74.59,36.63,112.15
			c-11.39-2.93-22.83-5.69-34.3-8.28c-8.66-27.8-17.57-55.53-26.71-83.17c-0.24-0.03-0.36-0.04-0.6-0.07
			c-8.69,24.17-17.54,48.28-26.55,72.33c-10.24-1.85-20.51-3.56-30.8-5.12c12.39-30.69,24.5-61.48,36.34-92.38
			c-11.32-31.15-22.95-62.18-34.87-93.11c11.39,0,22.78,0,34.17,0c8.45,24.07,16.72,48.2,24.83,72.39c0.24,0.02,0.36,0.03,0.6,0.05
			c8.46-24.09,16.76-48.24,24.93-72.43C805.63,93.58,815.82,93.58,826.01,93.58z"/>
	</g>
</g>
<g>
	<g>
		<path class="st1" d="M321.82,424.63c-7.79,1.46-11.69,2.23-19.46,3.84c-1.29-7.9-1.94-11.87-3.23-19.87
			c-9.46,1.63-14.19,2.49-23.62,4.29c-1.35,8.85-2.02,13.31-3.36,22.28c-7.04,1.66-10.55,2.52-17.57,4.31
			c6.28-41.25,12.86-82.44,19.76-123.59c9.47-0.02,18.94-0.05,28.41-0.07C308.95,352.11,315.3,388.39,321.82,424.63z M278,396.42
			c7.42-1.17,11.14-1.73,18.57-2.82c-3-19.07-5.96-38.15-8.9-57.23c-0.14,0.01-0.21,0.01-0.35,0.01
			C284.14,356.39,281.05,376.4,278,396.42z"/>
		<path class="st1" d="M348.94,344.46c-0.14,0.01-0.21,0.01-0.35,0.02c-0.19,25.19-0.38,50.37-0.57,75.56
			c-6.97,1.14-10.46,1.73-17.42,2.98c0.25-35.76,0.49-71.51,0.74-107.27c9.74-0.02,14.61-0.03,24.35-0.05
			c6.24,20.06,12.61,40.08,19.11,60.05c0.14-0.01,0.21-0.02,0.35-0.03c0.16-20.02,0.32-40.04,0.48-60.06
			c6.92-0.01,10.38-0.02,17.3-0.03c-0.26,32.71-0.52,65.41-0.78,98.12c-8,0.97-11.99,1.49-19.97,2.61
			C364.23,392.47,356.49,368.5,348.94,344.46z"/>
		<path class="st1" d="M406.87,315.63c10.24-0.01,20.47-0.02,30.71-0.03c14.23-0.81,29.36,6.57,28.84,22.65
			c-0.07,15.46-0.15,30.93-0.22,46.39c0.31,16.17-14.81,24.2-29.23,24.61c-10.29,0.81-20.58,1.78-30.85,2.91
			C406.37,379.98,406.62,347.81,406.87,315.63z M426.19,329.12c-0.16,22.53-0.32,45.05-0.47,67.58c4.39-0.34,6.59-0.5,10.99-0.81
			c6.21-0.43,9.95-3.04,9.98-9.68c0.1-16.11,0.19-32.22,0.29-48.33c0.04-6.64-3.66-8.99-9.84-8.91
			C432.76,329.03,430.57,329.06,426.19,329.12z"/>
		<path class="st1" d="M562.72,372.55c0.02,4.83,0.02,7.24,0.04,12.07c0.47,16.1-15.56,22.52-29.1,22.21
			c-13.97-0.33-29.09-6.36-29.13-22.58c0.03-15.67,0.05-31.33,0.08-47c0.12-16.11,14.92-22.51,28.98-22.72
			c13.69-0.21,29.34,6.89,29.02,22.84c0.01,3.53,0.02,5.3,0.03,8.83c-7.36-0.09-11.04-0.12-18.4-0.17
			c-0.01-3.87-0.01-5.81-0.02-9.68c-0.01-6.46-3.9-8.92-10.09-8.93c-6.18-0.01-10.07,2.44-10.07,8.88c0,16.24,0,32.47,0,48.71
			c0,6.44,3.91,8.75,10.13,8.8c6.22,0.05,10.12-2.21,10.11-8.66c-0.01-5.16-0.01-7.75-0.02-12.91
			C551.65,372.32,555.34,372.38,562.72,372.55z"/>
		<path class="st1" d="M594.28,407.98c-7.81-0.5-11.72-0.71-19.54-1.07c-0.13-30.44-0.25-60.89-0.38-91.33
			c7.77,0,11.65,0.01,19.41,0.01c0.07,13.2,0.14,26.4,0.22,39.6c8.85,0.25,13.27,0.39,22.12,0.71c-0.09-13.43-0.18-26.86-0.27-40.29
			c7.91,0.01,11.86,0.01,19.77,0.02c0.24,31.95,0.48,63.9,0.72,95.84c-7.94-0.81-11.91-1.18-19.86-1.85
			c-0.09-13.43-0.18-26.86-0.27-40.29c-8.85-0.43-13.28-0.62-22.13-0.94C594.13,381.58,594.21,394.78,594.28,407.98z"/>
		<path class="st1" d="M649.72,315.64c7.77,0.01,11.65,0.02,19.41,0.03c0.27,33.26,0.54,66.51,0.8,99.77
			c-7.77-1.04-11.66-1.52-19.45-2.42C650.23,380.55,649.97,348.1,649.72,315.64z"/>
		<path class="st1" d="M683.25,315.69c7.77,0.01,11.65,0.02,19.41,0.03c0.22,29.92,0.45,59.84,0.67,89.76
			c10.63,1.56,21.22,3.2,31.82,4.93c0.04,6.31,0.06,9.46,0.09,15.77c-17.02-3.24-34.06-6.16-51.19-8.77
			C683.79,383.51,683.52,349.6,683.25,315.69z"/>
		<path class="st1" d="M743.07,315.81c7.76,0.02,11.65,0.03,19.41,0.05c0.12,33.17,0.24,66.35,0.35,99.52
			c10.55,2.06,21.07,4.21,31.58,6.45c0,7.06,0,10.59,0,17.65c-16.86-4.19-33.76-8.05-50.76-11.61
			C743.46,390.51,743.27,353.16,743.07,315.81z"/>
	</g>
</g>
</svg>
